<mxfile host="app.diagrams.net" modified="2023-01-08T08:41:25.474Z" agent="5.0 (Macintosh; Intel Mac OS X 10_14_6) AppleWebKit/537.36 (KHTML, like Gecko) Chrome/108.0.0.0 Safari/537.36" version="20.8.1" etag="LxA5bCNsFalkpAM116aU" type="github">
  <diagram id="QtodGj0ftuX0PRAN--Z4" name="第 1 页">
    <mxGraphModel dx="1590" dy="2062" grid="1" gridSize="10" guides="1" tooltips="1" connect="1" arrows="1" fold="1" page="1" pageScale="1" pageWidth="827" pageHeight="1169" math="0" shadow="0">
      <root>
        <mxCell id="0" />
        <mxCell id="1" parent="0" />
        <mxCell id="DcsP90gjUwVZ1aXJp-p7-25" value="" style="rounded=0;whiteSpace=wrap;html=1;strokeWidth=2;fillWeight=4;hachureGap=8;hachureAngle=45;fillColor=#f5f5f5;strokeColor=#666666;fontSize=15;fontStyle=1;fontColor=#333333;" vertex="1" parent="1">
          <mxGeometry x="680" y="200" width="1520" height="640" as="geometry" />
        </mxCell>
        <mxCell id="DcsP90gjUwVZ1aXJp-p7-77" value="" style="rounded=0;whiteSpace=wrap;html=1;strokeWidth=2;fillWeight=4;hachureGap=8;hachureAngle=45;fillColor=#fff2cc;strokeColor=#d6b656;fontSize=15;fontStyle=1;" vertex="1" parent="1">
          <mxGeometry x="1740" y="220" width="240" height="360" as="geometry" />
        </mxCell>
        <mxCell id="DcsP90gjUwVZ1aXJp-p7-53" value="" style="rounded=1;whiteSpace=wrap;html=1;strokeWidth=2;fillWeight=4;hachureGap=8;hachureAngle=45;fillColor=#b0e3e6;strokeColor=#0e8088;fontSize=15;fontStyle=1" vertex="1" parent="1">
          <mxGeometry x="1290" y="-50" width="200" height="90" as="geometry" />
        </mxCell>
        <mxCell id="DcsP90gjUwVZ1aXJp-p7-51" value="" style="rounded=1;whiteSpace=wrap;html=1;strokeWidth=2;fillWeight=4;hachureGap=8;hachureAngle=45;fillColor=#b0e3e6;strokeColor=#0e8088;fontSize=15;fontStyle=1" vertex="1" parent="1">
          <mxGeometry x="1030" y="-50" width="200" height="90" as="geometry" />
        </mxCell>
        <mxCell id="DcsP90gjUwVZ1aXJp-p7-2" value="&lt;span style=&quot;font-size: 15px;&quot;&gt;&lt;span style=&quot;font-size: 15px;&quot;&gt;接收队列&lt;/span&gt;&lt;/span&gt;" style="rounded=1;whiteSpace=wrap;html=1;strokeWidth=2;fillWeight=4;hachureGap=8;hachureAngle=45;fillColor=#d5e8d4;strokeColor=#82b366;fontSize=15;fontStyle=1" vertex="1" parent="1">
          <mxGeometry x="1300" y="-10" width="80" height="40" as="geometry" />
        </mxCell>
        <mxCell id="DcsP90gjUwVZ1aXJp-p7-5" value="&lt;span style=&quot;font-size: 15px;&quot;&gt;epoll&lt;/span&gt;" style="rounded=1;whiteSpace=wrap;html=1;strokeWidth=2;fillWeight=4;hachureGap=8;hachureAngle=45;fillColor=#d5e8d4;strokeColor=#82b366;fontSize=15;fontStyle=1" vertex="1" parent="1">
          <mxGeometry x="1040" y="120" width="440" height="40" as="geometry" />
        </mxCell>
        <mxCell id="DcsP90gjUwVZ1aXJp-p7-6" value="&lt;span style=&quot;font-size: 15px; font-weight: 700;&quot;&gt;client 连接 读事件处理函数&lt;/span&gt;" style="rounded=1;whiteSpace=wrap;html=1;strokeWidth=2;fillWeight=4;hachureGap=8;hachureAngle=45;fillColor=#d5e8d4;strokeColor=#82b366;fontSize=15;" vertex="1" parent="1">
          <mxGeometry x="1160" y="400" width="200" height="40" as="geometry" />
        </mxCell>
        <mxCell id="DcsP90gjUwVZ1aXJp-p7-7" value="&lt;span style=&quot;font-size: 15px; font-weight: 700;&quot;&gt;client 连接写事件处理函数&lt;/span&gt;" style="rounded=1;whiteSpace=wrap;html=1;strokeWidth=2;fillWeight=4;hachureGap=8;hachureAngle=45;fillColor=#d5e8d4;strokeColor=#82b366;fontSize=15;" vertex="1" parent="1">
          <mxGeometry x="1440" y="400" width="200" height="40" as="geometry" />
        </mxCell>
        <mxCell id="DcsP90gjUwVZ1aXJp-p7-8" value="&lt;span style=&quot;font-size: 15px; font-weight: 700;&quot;&gt;listen fd 读事件处理函数&lt;/span&gt;" style="rounded=1;whiteSpace=wrap;html=1;strokeWidth=2;fillWeight=4;hachureGap=8;hachureAngle=45;fillColor=#d5e8d4;strokeColor=#82b366;fontSize=15;" vertex="1" parent="1">
          <mxGeometry x="880" y="400" width="200" height="40" as="geometry" />
        </mxCell>
        <mxCell id="DcsP90gjUwVZ1aXJp-p7-9" value="事件注册函数中间件" style="rounded=1;whiteSpace=wrap;html=1;strokeWidth=2;fillWeight=4;hachureGap=8;hachureAngle=45;fillColor=#d5e8d4;strokeColor=#82b366;fontStyle=1;fontSize=15;" vertex="1" parent="1">
          <mxGeometry x="1040" y="280" width="440" height="40" as="geometry" />
        </mxCell>
        <mxCell id="DcsP90gjUwVZ1aXJp-p7-10" value="&lt;span style=&quot;font-size: 15px; font-weight: 700;&quot;&gt;accept获取连接fd&lt;/span&gt;" style="rounded=1;whiteSpace=wrap;html=1;strokeWidth=2;fillWeight=4;hachureGap=8;hachureAngle=45;fillColor=#d5e8d4;strokeColor=#82b366;fontSize=15;" vertex="1" parent="1">
          <mxGeometry x="880" y="480" width="200" height="40" as="geometry" />
        </mxCell>
        <mxCell id="DcsP90gjUwVZ1aXJp-p7-11" value="&lt;span style=&quot;font-size: 15px; font-weight: 700;&quot;&gt;将新fd添加到epoll&lt;/span&gt;" style="rounded=1;whiteSpace=wrap;html=1;strokeWidth=2;fillWeight=4;hachureGap=8;hachureAngle=45;fillColor=#d5e8d4;strokeColor=#82b366;fontSize=15;" vertex="1" parent="1">
          <mxGeometry x="880" y="560" width="200" height="40" as="geometry" />
        </mxCell>
        <mxCell id="DcsP90gjUwVZ1aXJp-p7-12" value="&lt;span style=&quot;font-size: 15px; font-weight: 700;&quot;&gt;注册fd的读事件&lt;/span&gt;" style="rounded=1;whiteSpace=wrap;html=1;strokeWidth=2;fillWeight=4;hachureGap=8;hachureAngle=45;fillColor=#dae8fc;strokeColor=#6c8ebf;fontSize=15;" vertex="1" parent="1">
          <mxGeometry x="880" y="640" width="200" height="40" as="geometry" />
        </mxCell>
        <mxCell id="DcsP90gjUwVZ1aXJp-p7-13" value="&lt;span style=&quot;font-size: 15px;&quot;&gt;&lt;b style=&quot;font-size: 15px;&quot;&gt;输出添加到缓冲并加入队列&lt;/b&gt;&lt;/span&gt;" style="rounded=1;whiteSpace=wrap;html=1;strokeWidth=2;fillWeight=4;hachureGap=8;hachureAngle=45;fillColor=#d5e8d4;strokeColor=#82b366;fontSize=15;" vertex="1" parent="1">
          <mxGeometry x="1160" y="640" width="200" height="40" as="geometry" />
        </mxCell>
        <mxCell id="DcsP90gjUwVZ1aXJp-p7-14" value="&lt;b style=&quot;border-color: var(--border-color); font-size: 15px;&quot;&gt;取出发送队列数据&lt;/b&gt;" style="rounded=1;whiteSpace=wrap;html=1;strokeWidth=2;fillWeight=4;hachureGap=8;hachureAngle=45;fillColor=#d5e8d4;strokeColor=#82b366;fontSize=15;" vertex="1" parent="1">
          <mxGeometry x="1440" y="480" width="190" height="40" as="geometry" />
        </mxCell>
        <mxCell id="DcsP90gjUwVZ1aXJp-p7-15" value="&lt;span style=&quot;font-size: 15px;&quot;&gt;&lt;b style=&quot;font-size: 15px;&quot;&gt;解析命令&lt;/b&gt;&lt;/span&gt;" style="rounded=1;whiteSpace=wrap;html=1;strokeWidth=2;fillWeight=4;hachureGap=8;hachureAngle=45;fillColor=#d5e8d4;strokeColor=#82b366;fontSize=15;" vertex="1" parent="1">
          <mxGeometry x="1160" y="480" width="200" height="40" as="geometry" />
        </mxCell>
        <mxCell id="DcsP90gjUwVZ1aXJp-p7-16" value="&lt;span style=&quot;font-size: 15px;&quot;&gt;&lt;b style=&quot;font-size: 15px;&quot;&gt;执行命令&lt;/b&gt;&lt;/span&gt;" style="rounded=1;whiteSpace=wrap;html=1;strokeWidth=2;fillWeight=4;hachureGap=8;hachureAngle=45;fillColor=#d5e8d4;strokeColor=#82b366;fontSize=15;" vertex="1" parent="1">
          <mxGeometry x="1160" y="560" width="200" height="40" as="geometry" />
        </mxCell>
        <mxCell id="DcsP90gjUwVZ1aXJp-p7-17" value="" style="endArrow=classic;html=1;rounded=0;strokeWidth=2;exitX=0;exitY=0.5;exitDx=0;exitDy=0;entryX=0;entryY=0.5;entryDx=0;entryDy=0;" edge="1" parent="1" source="DcsP90gjUwVZ1aXJp-p7-12" target="DcsP90gjUwVZ1aXJp-p7-5">
          <mxGeometry width="50" height="50" relative="1" as="geometry">
            <mxPoint x="920" y="300" as="sourcePoint" />
            <mxPoint x="970" y="250" as="targetPoint" />
            <Array as="points">
              <mxPoint x="840" y="660" />
              <mxPoint x="840" y="140" />
            </Array>
          </mxGeometry>
        </mxCell>
        <mxCell id="DcsP90gjUwVZ1aXJp-p7-18" value="" style="endArrow=classic;html=1;rounded=0;strokeWidth=2;exitX=0.5;exitY=1;exitDx=0;exitDy=0;fontSize=15;fontStyle=1" edge="1" parent="1" source="DcsP90gjUwVZ1aXJp-p7-47">
          <mxGeometry width="50" height="50" relative="1" as="geometry">
            <mxPoint x="1100" y="40" as="sourcePoint" />
            <mxPoint x="1080" y="120" as="targetPoint" />
          </mxGeometry>
        </mxCell>
        <mxCell id="DcsP90gjUwVZ1aXJp-p7-20" value="" style="endArrow=classic;html=1;rounded=0;strokeWidth=2;exitX=0.25;exitY=1;exitDx=0;exitDy=0;entryX=0.5;entryY=0;entryDx=0;entryDy=0;fontSize=15;fontStyle=1" edge="1" parent="1" source="DcsP90gjUwVZ1aXJp-p7-9" target="DcsP90gjUwVZ1aXJp-p7-8">
          <mxGeometry width="50" height="50" relative="1" as="geometry">
            <mxPoint x="1160" y="210" as="sourcePoint" />
            <mxPoint x="1160" y="290" as="targetPoint" />
          </mxGeometry>
        </mxCell>
        <mxCell id="DcsP90gjUwVZ1aXJp-p7-21" value="" style="endArrow=classic;html=1;rounded=0;strokeWidth=2;exitX=0.5;exitY=1;exitDx=0;exitDy=0;entryX=0.682;entryY=-0.059;entryDx=0;entryDy=0;entryPerimeter=0;fontSize=15;fontStyle=1" edge="1" parent="1" source="DcsP90gjUwVZ1aXJp-p7-2" target="DcsP90gjUwVZ1aXJp-p7-5">
          <mxGeometry width="50" height="50" relative="1" as="geometry">
            <mxPoint x="1070" y="50" as="sourcePoint" />
            <mxPoint x="1160" y="130" as="targetPoint" />
          </mxGeometry>
        </mxCell>
        <mxCell id="DcsP90gjUwVZ1aXJp-p7-23" value="" style="endArrow=classic;html=1;rounded=0;strokeWidth=2;exitX=0.5;exitY=1;exitDx=0;exitDy=0;fontSize=15;fontStyle=1" edge="1" parent="1" source="DcsP90gjUwVZ1aXJp-p7-9" target="DcsP90gjUwVZ1aXJp-p7-6">
          <mxGeometry width="50" height="50" relative="1" as="geometry">
            <mxPoint x="1270" y="210" as="sourcePoint" />
            <mxPoint x="1270" y="290" as="targetPoint" />
          </mxGeometry>
        </mxCell>
        <mxCell id="DcsP90gjUwVZ1aXJp-p7-24" value="等待发送队列" style="rounded=1;whiteSpace=wrap;html=1;strokeWidth=2;fillWeight=4;hachureGap=8;hachureAngle=45;fillColor=#f8cecc;strokeColor=#b85450;fontSize=15;fontStyle=1" vertex="1" parent="1">
          <mxGeometry x="2040" y="400" width="120" height="280" as="geometry" />
        </mxCell>
        <mxCell id="DcsP90gjUwVZ1aXJp-p7-28" value="" style="endArrow=classic;html=1;rounded=0;strokeWidth=2;fontSize=15;exitX=0.5;exitY=1;exitDx=0;exitDy=0;entryX=0.5;entryY=1;entryDx=0;entryDy=0;" edge="1" parent="1" source="DcsP90gjUwVZ1aXJp-p7-13" target="DcsP90gjUwVZ1aXJp-p7-24">
          <mxGeometry width="50" height="50" relative="1" as="geometry">
            <mxPoint x="1230" y="830" as="sourcePoint" />
            <mxPoint x="1280" y="780" as="targetPoint" />
            <Array as="points">
              <mxPoint x="1260" y="800" />
              <mxPoint x="2100" y="800" />
            </Array>
          </mxGeometry>
        </mxCell>
        <mxCell id="DcsP90gjUwVZ1aXJp-p7-29" value="&lt;span style=&quot;font-size: 15px;&quot;&gt;&lt;span style=&quot;font-size: 15px;&quot;&gt;输出到fd&lt;/span&gt;&lt;/span&gt;" style="rounded=1;whiteSpace=wrap;html=1;strokeWidth=2;fillWeight=4;hachureGap=8;hachureAngle=45;fillColor=#d5e8d4;strokeColor=#82b366;fontSize=15;fontStyle=1" vertex="1" parent="1">
          <mxGeometry x="1760" y="360" width="200" height="40" as="geometry" />
        </mxCell>
        <mxCell id="DcsP90gjUwVZ1aXJp-p7-30" value="&lt;span style=&quot;font-size: 15px;&quot;&gt;&lt;b style=&quot;font-size: 15px;&quot;&gt;写不下了就加回队列&lt;/b&gt;&lt;/span&gt;" style="rounded=1;whiteSpace=wrap;html=1;strokeWidth=2;fillWeight=4;hachureGap=8;hachureAngle=45;fillColor=#d5e8d4;strokeColor=#82b366;fontSize=15;" vertex="1" parent="1">
          <mxGeometry x="1760" y="440" width="200" height="40" as="geometry" />
        </mxCell>
        <mxCell id="DcsP90gjUwVZ1aXJp-p7-31" value="&lt;span style=&quot;font-size: 15px;&quot;&gt;&lt;b style=&quot;font-size: 15px;&quot;&gt;写不下就注册fd写事件&lt;/b&gt;&lt;/span&gt;" style="rounded=1;whiteSpace=wrap;html=1;strokeWidth=2;fillWeight=4;hachureGap=8;hachureAngle=45;fillColor=#dae8fc;strokeColor=#6c8ebf;fontSize=15;" vertex="1" parent="1">
          <mxGeometry x="1760" y="520" width="200" height="40" as="geometry" />
        </mxCell>
        <mxCell id="DcsP90gjUwVZ1aXJp-p7-32" value="" style="endArrow=classic;html=1;rounded=0;strokeWidth=2;fontSize=15;exitX=0;exitY=0.5;exitDx=0;exitDy=0;entryX=1;entryY=0.5;entryDx=0;entryDy=0;" edge="1" parent="1" source="DcsP90gjUwVZ1aXJp-p7-31" target="DcsP90gjUwVZ1aXJp-p7-5">
          <mxGeometry width="50" height="50" relative="1" as="geometry">
            <mxPoint x="1380" y="210" as="sourcePoint" />
            <mxPoint x="1380" y="290" as="targetPoint" />
            <Array as="points">
              <mxPoint x="1700" y="540" />
              <mxPoint x="1700" y="140" />
            </Array>
          </mxGeometry>
        </mxCell>
        <mxCell id="DcsP90gjUwVZ1aXJp-p7-33" value="" style="endArrow=classic;html=1;rounded=0;strokeWidth=2;exitX=0.5;exitY=1;exitDx=0;exitDy=0;entryX=0.5;entryY=0;entryDx=0;entryDy=0;fontSize=15;" edge="1" parent="1" source="DcsP90gjUwVZ1aXJp-p7-29" target="DcsP90gjUwVZ1aXJp-p7-30">
          <mxGeometry width="50" height="50" relative="1" as="geometry">
            <mxPoint x="1350" y="650" as="sourcePoint" />
            <mxPoint x="1350" y="730" as="targetPoint" />
          </mxGeometry>
        </mxCell>
        <mxCell id="DcsP90gjUwVZ1aXJp-p7-34" value="" style="endArrow=classic;html=1;rounded=0;strokeWidth=2;exitX=0.5;exitY=1;exitDx=0;exitDy=0;entryX=0.5;entryY=0;entryDx=0;entryDy=0;fontSize=15;" edge="1" parent="1" source="DcsP90gjUwVZ1aXJp-p7-30" target="DcsP90gjUwVZ1aXJp-p7-31">
          <mxGeometry width="50" height="50" relative="1" as="geometry">
            <mxPoint x="1870" y="410" as="sourcePoint" />
            <mxPoint x="1870" y="450" as="targetPoint" />
          </mxGeometry>
        </mxCell>
        <mxCell id="DcsP90gjUwVZ1aXJp-p7-36" value="" style="endArrow=classic;html=1;rounded=0;strokeWidth=2;fontSize=15;exitX=0.5;exitY=1;exitDx=0;exitDy=0;entryX=0.5;entryY=0;entryDx=0;entryDy=0;" edge="1" parent="1" source="DcsP90gjUwVZ1aXJp-p7-8" target="DcsP90gjUwVZ1aXJp-p7-10">
          <mxGeometry width="50" height="50" relative="1" as="geometry">
            <mxPoint x="900" y="370" as="sourcePoint" />
            <mxPoint x="950" y="320" as="targetPoint" />
          </mxGeometry>
        </mxCell>
        <mxCell id="DcsP90gjUwVZ1aXJp-p7-37" value="" style="endArrow=classic;html=1;rounded=0;strokeWidth=2;fontSize=15;exitX=0.5;exitY=1;exitDx=0;exitDy=0;entryX=0.5;entryY=0;entryDx=0;entryDy=0;" edge="1" parent="1" source="DcsP90gjUwVZ1aXJp-p7-10" target="DcsP90gjUwVZ1aXJp-p7-11">
          <mxGeometry width="50" height="50" relative="1" as="geometry">
            <mxPoint x="880" y="600" as="sourcePoint" />
            <mxPoint x="930" y="550" as="targetPoint" />
          </mxGeometry>
        </mxCell>
        <mxCell id="DcsP90gjUwVZ1aXJp-p7-38" value="" style="endArrow=classic;html=1;rounded=0;strokeWidth=2;fontSize=15;entryX=0.5;entryY=0;entryDx=0;entryDy=0;" edge="1" parent="1" source="DcsP90gjUwVZ1aXJp-p7-11" target="DcsP90gjUwVZ1aXJp-p7-12">
          <mxGeometry width="50" height="50" relative="1" as="geometry">
            <mxPoint x="910" y="750" as="sourcePoint" />
            <mxPoint x="960" y="700" as="targetPoint" />
          </mxGeometry>
        </mxCell>
        <mxCell id="DcsP90gjUwVZ1aXJp-p7-39" value="" style="endArrow=classic;html=1;rounded=0;strokeWidth=2;fontSize=15;exitX=0.5;exitY=1;exitDx=0;exitDy=0;entryX=0.5;entryY=0;entryDx=0;entryDy=0;" edge="1" parent="1" source="DcsP90gjUwVZ1aXJp-p7-6" target="DcsP90gjUwVZ1aXJp-p7-15">
          <mxGeometry width="50" height="50" relative="1" as="geometry">
            <mxPoint x="1170" y="560" as="sourcePoint" />
            <mxPoint x="1220" y="510" as="targetPoint" />
          </mxGeometry>
        </mxCell>
        <mxCell id="DcsP90gjUwVZ1aXJp-p7-40" value="" style="endArrow=classic;html=1;rounded=0;strokeWidth=2;fontSize=15;exitX=0.5;exitY=1;exitDx=0;exitDy=0;" edge="1" parent="1" source="DcsP90gjUwVZ1aXJp-p7-15" target="DcsP90gjUwVZ1aXJp-p7-16">
          <mxGeometry width="50" height="50" relative="1" as="geometry">
            <mxPoint x="1070" y="680" as="sourcePoint" />
            <mxPoint x="1120" y="630" as="targetPoint" />
          </mxGeometry>
        </mxCell>
        <mxCell id="DcsP90gjUwVZ1aXJp-p7-41" value="" style="endArrow=classic;html=1;rounded=0;strokeWidth=2;fontSize=15;exitX=0.5;exitY=1;exitDx=0;exitDy=0;entryX=0.5;entryY=0;entryDx=0;entryDy=0;" edge="1" parent="1" source="DcsP90gjUwVZ1aXJp-p7-16" target="DcsP90gjUwVZ1aXJp-p7-13">
          <mxGeometry width="50" height="50" relative="1" as="geometry">
            <mxPoint x="1110" y="710" as="sourcePoint" />
            <mxPoint x="1160" y="660" as="targetPoint" />
          </mxGeometry>
        </mxCell>
        <mxCell id="DcsP90gjUwVZ1aXJp-p7-42" value="" style="endArrow=classic;html=1;rounded=0;strokeWidth=2;fontSize=15;exitX=0.5;exitY=1;exitDx=0;exitDy=0;entryX=0.53;entryY=0.013;entryDx=0;entryDy=0;entryPerimeter=0;" edge="1" parent="1" source="DcsP90gjUwVZ1aXJp-p7-7" target="DcsP90gjUwVZ1aXJp-p7-14">
          <mxGeometry width="50" height="50" relative="1" as="geometry">
            <mxPoint x="1540" y="540" as="sourcePoint" />
            <mxPoint x="1533" y="480" as="targetPoint" />
          </mxGeometry>
        </mxCell>
        <mxCell id="DcsP90gjUwVZ1aXJp-p7-43" value="" style="endArrow=classic;html=1;rounded=0;strokeWidth=2;fontSize=15;exitX=0.75;exitY=1;exitDx=0;exitDy=0;entryX=0.5;entryY=0;entryDx=0;entryDy=0;fontStyle=1" edge="1" parent="1" source="DcsP90gjUwVZ1aXJp-p7-9" target="DcsP90gjUwVZ1aXJp-p7-7">
          <mxGeometry width="50" height="50" relative="1" as="geometry">
            <mxPoint x="1430" y="360" as="sourcePoint" />
            <mxPoint x="1480" y="310" as="targetPoint" />
          </mxGeometry>
        </mxCell>
        <mxCell id="DcsP90gjUwVZ1aXJp-p7-45" value="&lt;span style=&quot;font-size: 15px;&quot;&gt;&lt;span style=&quot;font-size: 15px;&quot;&gt;发送队列&lt;/span&gt;&lt;/span&gt;" style="rounded=1;whiteSpace=wrap;html=1;strokeWidth=2;fillWeight=4;hachureGap=8;hachureAngle=45;fillColor=#d5e8d4;strokeColor=#82b366;fontSize=15;fontStyle=1" vertex="1" parent="1">
          <mxGeometry x="1400" y="-10" width="80" height="40" as="geometry" />
        </mxCell>
        <mxCell id="DcsP90gjUwVZ1aXJp-p7-47" value="&lt;span style=&quot;font-size: 15px;&quot;&gt;&lt;span style=&quot;font-size: 15px;&quot;&gt;接收队列&lt;/span&gt;&lt;/span&gt;" style="rounded=1;whiteSpace=wrap;html=1;strokeWidth=2;fillWeight=4;hachureGap=8;hachureAngle=45;fillColor=#d5e8d4;strokeColor=#82b366;fontSize=15;fontStyle=1" vertex="1" parent="1">
          <mxGeometry x="1040" y="-10" width="80" height="40" as="geometry" />
        </mxCell>
        <mxCell id="DcsP90gjUwVZ1aXJp-p7-48" value="&lt;span style=&quot;font-size: 15px;&quot;&gt;&lt;span style=&quot;font-size: 15px;&quot;&gt;发送队列&lt;/span&gt;&lt;/span&gt;" style="rounded=1;whiteSpace=wrap;html=1;strokeWidth=2;fillWeight=4;hachureGap=8;hachureAngle=45;fillColor=#d5e8d4;strokeColor=#82b366;fontSize=15;fontStyle=1" vertex="1" parent="1">
          <mxGeometry x="1140" y="-10" width="80" height="40" as="geometry" />
        </mxCell>
        <mxCell id="DcsP90gjUwVZ1aXJp-p7-49" value="" style="endArrow=classic;html=1;rounded=0;strokeWidth=2;exitX=0.5;exitY=1;exitDx=0;exitDy=0;entryX=0.909;entryY=0.019;entryDx=0;entryDy=0;entryPerimeter=0;fontSize=15;fontStyle=1" edge="1" parent="1" source="DcsP90gjUwVZ1aXJp-p7-45" target="DcsP90gjUwVZ1aXJp-p7-5">
          <mxGeometry width="50" height="50" relative="1" as="geometry">
            <mxPoint x="1090" y="50" as="sourcePoint" />
            <mxPoint x="1160" y="130" as="targetPoint" />
          </mxGeometry>
        </mxCell>
        <mxCell id="DcsP90gjUwVZ1aXJp-p7-52" value="监听socket" style="text;strokeColor=none;fillColor=none;html=1;fontSize=15;fontStyle=1;verticalAlign=middle;align=center;rounded=0;" vertex="1" parent="1">
          <mxGeometry x="1080" y="-50" width="100" height="40" as="geometry" />
        </mxCell>
        <mxCell id="DcsP90gjUwVZ1aXJp-p7-54" value="连接socket" style="text;strokeColor=none;fillColor=none;html=1;fontSize=15;fontStyle=1;verticalAlign=middle;align=center;rounded=0;" vertex="1" parent="1">
          <mxGeometry x="1340" y="-50" width="100" height="40" as="geometry" />
        </mxCell>
        <mxCell id="DcsP90gjUwVZ1aXJp-p7-55" value="队列有空位" style="text;strokeColor=none;fillColor=none;html=1;fontSize=15;fontStyle=1;verticalAlign=middle;align=center;rounded=0;" vertex="1" parent="1">
          <mxGeometry x="1440" y="60" width="80" height="40" as="geometry" />
        </mxCell>
        <mxCell id="DcsP90gjUwVZ1aXJp-p7-56" value="队列有数据" style="text;strokeColor=none;fillColor=none;html=1;fontSize=15;fontStyle=1;verticalAlign=middle;align=center;rounded=0;" vertex="1" parent="1">
          <mxGeometry x="1260" y="60" width="80" height="40" as="geometry" />
        </mxCell>
        <mxCell id="DcsP90gjUwVZ1aXJp-p7-57" value="队列有数据" style="text;strokeColor=none;fillColor=none;html=1;fontSize=15;fontStyle=1;verticalAlign=middle;align=center;rounded=0;" vertex="1" parent="1">
          <mxGeometry x="1000" y="60" width="80" height="40" as="geometry" />
        </mxCell>
        <mxCell id="DcsP90gjUwVZ1aXJp-p7-58" value="读事件" style="text;strokeColor=none;fillColor=none;html=1;fontSize=15;fontStyle=1;verticalAlign=middle;align=center;rounded=0;" vertex="1" parent="1">
          <mxGeometry x="960" y="340" width="80" height="40" as="geometry" />
        </mxCell>
        <mxCell id="DcsP90gjUwVZ1aXJp-p7-59" value="写事件" style="text;strokeColor=none;fillColor=none;html=1;fontSize=15;fontStyle=1;verticalAlign=middle;align=center;rounded=0;" vertex="1" parent="1">
          <mxGeometry x="1480" y="340" width="80" height="40" as="geometry" />
        </mxCell>
        <mxCell id="DcsP90gjUwVZ1aXJp-p7-62" value="&lt;span style=&quot;font-size: 15px;&quot;&gt;&lt;b style=&quot;font-size: 15px;&quot;&gt;输出到fd&lt;/b&gt;&lt;/span&gt;" style="rounded=1;whiteSpace=wrap;html=1;strokeWidth=2;fillWeight=4;hachureGap=8;hachureAngle=45;fillColor=#d5e8d4;strokeColor=#82b366;fontSize=15;" vertex="1" parent="1">
          <mxGeometry x="1440" y="560" width="200" height="40" as="geometry" />
        </mxCell>
        <mxCell id="DcsP90gjUwVZ1aXJp-p7-63" value="&lt;span style=&quot;font-size: 15px;&quot;&gt;&lt;b style=&quot;font-size: 15px;&quot;&gt;写不下了就加回队列&lt;/b&gt;&lt;/span&gt;" style="rounded=1;whiteSpace=wrap;html=1;strokeWidth=2;fillWeight=4;hachureGap=8;hachureAngle=45;fillColor=#d5e8d4;strokeColor=#82b366;fontSize=15;" vertex="1" parent="1">
          <mxGeometry x="1440" y="640" width="200" height="40" as="geometry" />
        </mxCell>
        <mxCell id="DcsP90gjUwVZ1aXJp-p7-64" value="&lt;span style=&quot;font-size: 15px;&quot;&gt;&lt;b style=&quot;font-size: 15px;&quot;&gt;写不下就注册fd写事件&lt;/b&gt;&lt;/span&gt;" style="rounded=1;whiteSpace=wrap;html=1;strokeWidth=2;fillWeight=4;hachureGap=8;hachureAngle=45;fillColor=#dae8fc;strokeColor=#6c8ebf;fontSize=15;" vertex="1" parent="1">
          <mxGeometry x="1440" y="720" width="200" height="40" as="geometry" />
        </mxCell>
        <mxCell id="DcsP90gjUwVZ1aXJp-p7-65" value="" style="endArrow=classic;html=1;rounded=0;strokeWidth=2;exitX=0.5;exitY=1;exitDx=0;exitDy=0;entryX=0.5;entryY=0;entryDx=0;entryDy=0;fontSize=15;" edge="1" parent="1" source="DcsP90gjUwVZ1aXJp-p7-62" target="DcsP90gjUwVZ1aXJp-p7-63">
          <mxGeometry width="50" height="50" relative="1" as="geometry">
            <mxPoint x="1030" y="850" as="sourcePoint" />
            <mxPoint x="1030" y="930" as="targetPoint" />
          </mxGeometry>
        </mxCell>
        <mxCell id="DcsP90gjUwVZ1aXJp-p7-66" value="" style="endArrow=classic;html=1;rounded=0;strokeWidth=2;exitX=0.5;exitY=1;exitDx=0;exitDy=0;entryX=0.5;entryY=0;entryDx=0;entryDy=0;fontSize=15;" edge="1" parent="1" source="DcsP90gjUwVZ1aXJp-p7-63" target="DcsP90gjUwVZ1aXJp-p7-64">
          <mxGeometry width="50" height="50" relative="1" as="geometry">
            <mxPoint x="1550" y="610" as="sourcePoint" />
            <mxPoint x="1550" y="650" as="targetPoint" />
          </mxGeometry>
        </mxCell>
        <mxCell id="DcsP90gjUwVZ1aXJp-p7-67" value="" style="endArrow=classic;html=1;rounded=0;strokeWidth=2;fontSize=15;" edge="1" parent="1">
          <mxGeometry width="50" height="50" relative="1" as="geometry">
            <mxPoint x="1540" y="520" as="sourcePoint" />
            <mxPoint x="1540" y="560" as="targetPoint" />
          </mxGeometry>
        </mxCell>
        <mxCell id="DcsP90gjUwVZ1aXJp-p7-68" value="&lt;span style=&quot;font-size: 15px;&quot;&gt;&lt;span style=&quot;font-size: 15px;&quot;&gt;取出数据&lt;/span&gt;&lt;/span&gt;" style="rounded=1;whiteSpace=wrap;html=1;strokeWidth=2;fillWeight=4;hachureGap=8;hachureAngle=45;fillColor=#d5e8d4;strokeColor=#82b366;fontSize=15;fontStyle=1" vertex="1" parent="1">
          <mxGeometry x="1760" y="280" width="200" height="40" as="geometry" />
        </mxCell>
        <mxCell id="DcsP90gjUwVZ1aXJp-p7-70" value="" style="endArrow=classic;html=1;rounded=0;strokeWidth=2;fontSize=15;exitX=0.5;exitY=1;exitDx=0;exitDy=0;entryX=0.5;entryY=0;entryDx=0;entryDy=0;fontStyle=1" edge="1" parent="1" source="DcsP90gjUwVZ1aXJp-p7-5" target="DcsP90gjUwVZ1aXJp-p7-9">
          <mxGeometry width="50" height="50" relative="1" as="geometry">
            <mxPoint x="1300" y="270" as="sourcePoint" />
            <mxPoint x="1350" y="220" as="targetPoint" />
          </mxGeometry>
        </mxCell>
        <mxCell id="DcsP90gjUwVZ1aXJp-p7-71" value="epoll_wait" style="text;strokeColor=none;fillColor=none;html=1;fontSize=15;fontStyle=1;verticalAlign=middle;align=center;rounded=0;" vertex="1" parent="1">
          <mxGeometry x="1260" y="230" width="80" height="40" as="geometry" />
        </mxCell>
        <mxCell id="DcsP90gjUwVZ1aXJp-p7-72" value="给连接fd注册读事件" style="text;strokeColor=none;fillColor=none;html=1;fontSize=15;fontStyle=1;verticalAlign=middle;align=center;rounded=0;" vertex="1" parent="1">
          <mxGeometry x="700" y="440" width="140" height="40" as="geometry" />
        </mxCell>
        <mxCell id="DcsP90gjUwVZ1aXJp-p7-73" value="&lt;span style=&quot;font-size: 15px; font-weight: 700;&quot;&gt;添加到client链表&lt;/span&gt;" style="rounded=1;whiteSpace=wrap;html=1;strokeWidth=2;fillWeight=4;hachureGap=8;hachureAngle=45;fillColor=#d5e8d4;strokeColor=#82b366;fontSize=15;" vertex="1" parent="1">
          <mxGeometry x="880" y="720" width="200" height="40" as="geometry" />
        </mxCell>
        <mxCell id="DcsP90gjUwVZ1aXJp-p7-74" value="" style="endArrow=classic;html=1;rounded=0;strokeWidth=2;fontSize=15;exitX=0.5;exitY=1;exitDx=0;exitDy=0;entryX=0.5;entryY=0;entryDx=0;entryDy=0;" edge="1" parent="1" source="DcsP90gjUwVZ1aXJp-p7-12" target="DcsP90gjUwVZ1aXJp-p7-73">
          <mxGeometry width="50" height="50" relative="1" as="geometry">
            <mxPoint x="800" y="790" as="sourcePoint" />
            <mxPoint x="850" y="740" as="targetPoint" />
          </mxGeometry>
        </mxCell>
        <mxCell id="DcsP90gjUwVZ1aXJp-p7-75" value="" style="endArrow=classic;html=1;rounded=0;strokeWidth=2;fontSize=15;exitX=1;exitY=0.5;exitDx=0;exitDy=0;entryX=-0.008;entryY=0.93;entryDx=0;entryDy=0;entryPerimeter=0;" edge="1" parent="1" source="DcsP90gjUwVZ1aXJp-p7-63" target="DcsP90gjUwVZ1aXJp-p7-24">
          <mxGeometry width="50" height="50" relative="1" as="geometry">
            <mxPoint x="1030" y="870" as="sourcePoint" />
            <mxPoint x="1080" y="820" as="targetPoint" />
          </mxGeometry>
        </mxCell>
        <mxCell id="DcsP90gjUwVZ1aXJp-p7-76" value="" style="endArrow=classic;html=1;rounded=0;strokeWidth=2;fontSize=15;exitX=0.5;exitY=0;exitDx=0;exitDy=0;entryX=1;entryY=0.5;entryDx=0;entryDy=0;" edge="1" parent="1" source="DcsP90gjUwVZ1aXJp-p7-24" target="DcsP90gjUwVZ1aXJp-p7-68">
          <mxGeometry width="50" height="50" relative="1" as="geometry">
            <mxPoint x="1940" y="360" as="sourcePoint" />
            <mxPoint x="1990" y="310" as="targetPoint" />
            <Array as="points">
              <mxPoint x="2100" y="300" />
            </Array>
          </mxGeometry>
        </mxCell>
        <mxCell id="DcsP90gjUwVZ1aXJp-p7-78" value="beforeSleep" style="text;strokeColor=none;fillColor=none;html=1;fontSize=15;fontStyle=1;verticalAlign=middle;align=center;rounded=0;" vertex="1" parent="1">
          <mxGeometry x="1840" y="230" width="140" height="40" as="geometry" />
        </mxCell>
        <mxCell id="DcsP90gjUwVZ1aXJp-p7-79" value="" style="endArrow=classic;html=1;rounded=0;strokeWidth=2;fontSize=15;exitX=0.5;exitY=1;exitDx=0;exitDy=0;entryX=0.5;entryY=0;entryDx=0;entryDy=0;fontStyle=1" edge="1" parent="1" source="DcsP90gjUwVZ1aXJp-p7-68" target="DcsP90gjUwVZ1aXJp-p7-29">
          <mxGeometry width="50" height="50" relative="1" as="geometry">
            <mxPoint x="1390" y="110" as="sourcePoint" />
            <mxPoint x="1440" y="60" as="targetPoint" />
          </mxGeometry>
        </mxCell>
        <mxCell id="DcsP90gjUwVZ1aXJp-p7-80" value="" style="endArrow=classic;html=1;rounded=0;strokeWidth=2;fontSize=15;exitX=1;exitY=0.5;exitDx=0;exitDy=0;entryX=1;entryY=0.5;entryDx=0;entryDy=0;" edge="1" parent="1" source="DcsP90gjUwVZ1aXJp-p7-64" target="DcsP90gjUwVZ1aXJp-p7-5">
          <mxGeometry width="50" height="50" relative="1" as="geometry">
            <mxPoint x="1550" y="890" as="sourcePoint" />
            <mxPoint x="1600" y="840" as="targetPoint" />
            <Array as="points">
              <mxPoint x="1700" y="740" />
              <mxPoint x="1700" y="140" />
            </Array>
          </mxGeometry>
        </mxCell>
        <mxCell id="DcsP90gjUwVZ1aXJp-p7-81" value="loop" style="text;html=1;fontSize=25;fontStyle=1;verticalAlign=middle;align=center;rounded=0;" vertex="1" parent="1">
          <mxGeometry x="2110" y="210" width="80" height="40" as="geometry" />
        </mxCell>
        <mxCell id="DcsP90gjUwVZ1aXJp-p7-83" value="读事件" style="text;strokeColor=none;fillColor=none;html=1;fontSize=15;fontStyle=1;verticalAlign=middle;align=center;rounded=0;" vertex="1" parent="1">
          <mxGeometry x="1180" y="340" width="80" height="40" as="geometry" />
        </mxCell>
      </root>
    </mxGraphModel>
  </diagram>
</mxfile>
